<svg xmlns="http://www.w3.org/2000/svg" xmlns:xlink="http://www.w3.org/1999/xlink" version="1.1" x="0px" y="0px" viewBox="0 0 32 40" enable-background="new 0 0 32 32" xml:space="preserve"><g display="none"><rect x="-166.005" y="-161.25" display="inline" fill="#000000" width="411.75" height="199.25"/></g><g><path d="M0,29h32V3H0V29z M1,4h30v24H1V4z"/><rect x="4" y="7.783" width="24" height="1"/><rect x="4" y="10.783" width="24" height="1"/><rect x="4" y="13.783" width="24" height="1"/><path d="M21.023,24.216h6.972v-7h-6.972V24.216z M23.273,19.028l2.925,1.689l-2.925,1.689V19.028z"/><path d="M12.514,24.216h6.972v-7h-6.972V24.216z M14.764,19.028l2.925,1.689l-2.925,1.689V19.028z"/><path d="M4,24.216h6.972v-7H4V24.216z M6.25,19.028l2.925,1.689L6.25,22.405V19.028z"/></g><g display="none"><g display="inline"><path d="M31,4v24H1V4H31 M32,3H0v26h32V3L32,3z"/></g><line display="inline" fill="none" stroke="#000000" stroke-linejoin="round" stroke-miterlimit="10" x1="4" y1="8.284" x2="28" y2="8.284"/><line display="inline" fill="none" stroke="#000000" stroke-linejoin="round" stroke-miterlimit="10" x1="4" y1="11.284" x2="28" y2="11.284"/><line display="inline" fill="none" stroke="#000000" stroke-linejoin="round" stroke-miterlimit="10" x1="4" y1="14.284" x2="28" y2="14.284"/><g display="inline"><rect x="21.023" y="17.216" width="6.972" height="7"/></g><g display="inline"><polygon fill="#000000" points="23.273,19.028 26.198,20.716 23.273,22.405   "/></g><g display="inline"><rect x="12.514" y="17.216" width="6.972" height="7"/></g><g display="inline"><polygon fill="#000000" points="14.764,19.028 17.689,20.716 14.764,22.405   "/></g><g display="inline"><rect x="4" y="17.216" width="6.972" height="7"/></g><g display="inline"><polygon fill="#000000" points="6.25,19.028 9.175,20.716 6.25,22.405   "/></g></g></svg>
