<?xml version="1.0" ?><!DOCTYPE svg  PUBLIC '-//W3C//DTD SVG 1.1//EN'  'http://www.w3.org/Graphics/SVG/1.1/DTD/svg11.dtd'><svg enable-background="new 0 0 140 140" id="Layer_17" version="1.1" viewBox="0 0 140 140" xml:space="preserve" xmlns="http://www.w3.org/2000/svg" xmlns:xlink="http://www.w3.org/1999/xlink"><g><defs><filter filterUnits="userSpaceOnUse" height="97.071106" id="Adobe_OpacityMaskFilter" width="97.0710449" x="42.9289551" y="42.928894"><feColorMatrix type="matrix" values="1 0 0 0 0  0 1 0 0 0  0 0 1 0 0  0 0 0 1 0"/></filter></defs><mask height="97.071106" id="SVGID_1_" maskUnits="userSpaceOnUse" width="97.0710449" x="42.9289551" y="42.928894"><g filter="url(#Adobe_OpacityMaskFilter)"><radialGradient cx="70" cy="70" gradientTransform="matrix(0.7071068 0.7071068 -0.2721382 0.2721382 39.5522003 1.4528493)" gradientUnits="userSpaceOnUse" id="SVGID_2_" r="106.5634918"><stop offset="0.3" style="stop-color:#FFFFFF"/><stop offset="0.85" style="stop-color:#FFFFFF;stop-opacity:0"/></radialGradient><rect fill="url(#SVGID_2_)" height="140" width="140"/></g></mask><linearGradient gradientUnits="userSpaceOnUse" id="SVGID_3_" x1="69.9999847" x2="140.0000153" y1="69.9999542" y2="139.9999847"><stop offset="0" style="stop-color:#000000;stop-opacity:0.4"/><stop offset="0.8" style="stop-color:#000000;stop-opacity:0"/></linearGradient><polygon fill="url(#SVGID_3_)" mask="url(#SVGID_1_)" points="140,85.8580933    97.0710449,42.928894 42.9289551,97.0710449 85.8580933,140 140,140  "/><defs><filter filterUnits="userSpaceOnUse" height="97.071106" id="Adobe_OpacityMaskFilter_1_" width="97.0710449" x="42.9289551" y="42.928894"><feColorMatrix type="matrix" values="1 0 0 0 0  0 1 0 0 0  0 0 1 0 0  0 0 0 1 0"/></filter></defs><mask height="97.071106" id="SVGID_4_" maskUnits="userSpaceOnUse" width="97.0710449" x="42.9289551" y="42.928894"><g filter="url(#Adobe_OpacityMaskFilter_1_)"><radialGradient cx="70" cy="70" gradientTransform="matrix(0.7071068 0.7071068 -0.3889087 0.3889087 47.7261353 -6.7210855)" gradientUnits="userSpaceOnUse" id="SVGID_5_" r="79.5565872"><stop offset="0.3" style="stop-color:#FFFFFF"/><stop offset="0.85" style="stop-color:#FFFFFF;stop-opacity:0"/></radialGradient><rect fill="url(#SVGID_5_)" height="140" width="140"/></g></mask><linearGradient gradientUnits="userSpaceOnUse" id="SVGID_6_" x1="69.9999847" x2="140.0000153" y1="69.9999542" y2="139.9999847"><stop offset="0" style="stop-color:#F48024;stop-opacity:0.6"/><stop offset="0.5" style="stop-color:#F48024;stop-opacity:0"/></linearGradient><polygon fill="url(#SVGID_6_)" mask="url(#SVGID_4_)" points="140,85.8580933    97.0710449,42.928894 42.9289551,97.0710449 85.8580933,140 140,140  "/><path d="M90,100H50c-5.5228462,0-10-4.47715-10-10V50c0-5.5228462,4.4771538-10,10-10h40   c5.52285,0,10,4.4771538,10,10v40C100,95.52285,95.52285,100,90,100z" fill="#F48024"/><g><defs><path d="M90,41c4.9626236,0,9,4.0373802,9,9v40c0,4.9626236-4.0373764,9-9,9H50c-4.9626198,0-9-4.0373764-9-9V50     c0-4.9626198,4.0373802-9,9-9H90 M90,40H50c-5.52285,0-10,4.47715-10,10v40c0,5.52285,4.47715,10,10,10h40     c5.52285,0,10-4.47715,10-10V50C100,44.47715,95.52285,40,90,40L90,40z" id="SVGID_63_"/></defs><clipPath id="SVGID_8_"><use overflow="visible" xlink:href="#SVGID_63_"/></clipPath><linearGradient gradientUnits="userSpaceOnUse" id="SVGID_9_" x1="20" x2="120" y1="20" y2="120"><stop offset="0" style="stop-color:#FFFFFF;stop-opacity:0.8"/><stop offset="0.6" style="stop-color:#FFFFFF;stop-opacity:0"/></linearGradient><rect clip-path="url(#SVGID_8_)" fill="url(#SVGID_9_)" height="100" width="100" x="20" y="20"/></g><g><defs><path d="M90,41c4.9626236,0,9,4.0373802,9,9v40c0,4.9626236-4.0373764,9-9,9H50c-4.9626198,0-9-4.0373764-9-9V50     c0-4.9626198,4.0373802-9,9-9H90 M90,40H50c-5.52285,0-10,4.47715-10,10v40c0,5.52285,4.47715,10,10,10h40     c5.52285,0,10-4.47715,10-10V50C100,44.47715,95.52285,40,90,40L90,40z" id="SVGID_66_"/></defs><clipPath id="SVGID_11_"><use overflow="visible" xlink:href="#SVGID_66_"/></clipPath><linearGradient gradientUnits="userSpaceOnUse" id="SVGID_12_" x1="20" x2="120" y1="20" y2="120"><stop offset="0.4" style="stop-color:#000000;stop-opacity:0"/><stop offset="1" style="stop-color:#000000;stop-opacity:0.2"/></linearGradient><rect clip-path="url(#SVGID_11_)" fill="url(#SVGID_12_)" height="100" width="100" x="20" y="20"/></g><g><defs><path d="M50,99c-4.9624023,0-9-4.0375977-9-9V50c0-4.9624023,4.0375977-9,9-9h40c4.9624023,0,9,4.0375977,9,9v40     c0,4.9624023-4.0375977,9-9,9H50z" id="SVGID_69_"/></defs><clipPath id="SVGID_14_"><use overflow="visible" xlink:href="#SVGID_69_"/></clipPath><radialGradient cx="45" cy="45" gradientUnits="userSpaceOnUse" id="SVGID_15_" r="45"><stop offset="0" style="stop-color:#FFFFFF;stop-opacity:0.2"/><stop offset="1" style="stop-color:#FFFFFF;stop-opacity:0"/></radialGradient><circle clip-path="url(#SVGID_14_)" cx="45" cy="45" fill="url(#SVGID_15_)" r="45"/></g><g><defs><path d="M90,99.1499023H50c-5.0454102,0-9.1499023-4.1044922-9.1499023-9.1499023V50     c0-5.0454102,4.1044922-9.1499023,9.1499023-9.1499023h40c5.0454102,0,9.1499023,4.1044922,9.1499023,9.1499023v40     C99.1499023,95.0454102,95.0454102,99.1499023,90,99.1499023z M50,41.1499023     c-4.8798828,0-8.8500977,3.9702148-8.8500977,8.8500977v40c0,4.8798828,3.9702148,8.8500977,8.8500977,8.8500977h40     c4.8798828,0,8.8500977-3.9702148,8.8500977-8.8500977V50c0-4.8798828-3.9702148-8.8500977-8.8500977-8.8500977H50z" id="SVGID_72_"/></defs><clipPath id="SVGID_17_"><use overflow="visible" xlink:href="#SVGID_72_"/></clipPath><linearGradient gradientUnits="userSpaceOnUse" id="SVGID_18_" x1="20" x2="120" y1="20" y2="120"><stop offset="0.2" style="stop-color:#FFFFFF;stop-opacity:0.8"/><stop offset="0.7" style="stop-color:#FFFFFF;stop-opacity:0"/></linearGradient><rect clip-path="url(#SVGID_17_)" fill="url(#SVGID_18_)" height="100" width="100" x="20" y="20"/></g><g><path d="M100,90v-6.2162476L83.4053955,67.1891479l-16-8.7567139    l12.1824341,12.1824341L62.8648682,66.432373l9.0264282,9.0264282l-11.2966919-0.5939331l5.7417603,5.7416992h-4.3244019    l-4.6606445-4.6606445L53.0270386,90l10,10H90C95.5228271,100,100,95.5228271,100,90z" opacity="0.12"/><polygon opacity="0.12" points="77.7781982,53.7365112 82.7279053,60.1004639     84.0540771,66.5405273 100,82.4864502 100,73.5502319 76.2702637,50   "/></g><g><polygon fill="#FFFFFF" points="81.1351318,85.6756592 57.3513794,85.6756592 57.3513794,75.9459229 53.0270386,75.9459229     53.0270386,90 85.4594727,90 85.4594727,75.9459229 81.1351318,75.9459229   "/><rect fill="#FFFFFF" height="3.5790436" transform="matrix(0.9061835 0.4228847 -0.4228847 0.9061835 35.7370453 -23.8981037)" width="17.8951035" x="62.7821846" y="66.8050842"/><polygon fill="#FFFFFF" points="86.9729614,64.3783569 76.2702637,50 73.3513794,52.1621704 84.0540771,66.5405273   "/><polygon fill="#FFFFFF" points="83.4053955,67.1891479 69.6756592,55.7297363 67.4053955,58.4324341 81.1351318,69.8919067   "/><rect fill="#FFFFFF" height="3.2432861" width="17.2973022" x="60.594635" y="79.1891479"/><polygon fill="#FFFFFF" points="78.7394409,74.9080811 61.3297119,71.2843018 60.5946045,74.8648682 77.9891968,78.09729   "/></g><path d="M85.4594574,88.4583359V90H53.0270271v-1.0001678   c0,0,9.2614479,0.1326141,17.764637,0.041832C82.5,88.9166641,85.4594574,88.4583359,85.4594574,88.4583359z" fill="#F48024" opacity="0.4"/></g></svg>